<svg width="14" height="14" viewBox="0 0 14 14" fill="none" xmlns="http://www.w3.org/2000/svg">
<g opacity="0.3">
<path d="M11.0834 2.33335H9.91669V1.75002C9.91669 1.59531 9.85523 1.44694 9.74583 1.33754C9.63644 1.22815 9.48806 1.16669 9.33335 1.16669C9.17864 1.16669 9.03027 1.22815 8.92088 1.33754C8.81148 1.44694 8.75002 1.59531 8.75002 1.75002V2.33335H5.25002V1.75002C5.25002 1.59531 5.18856 1.44694 5.07917 1.33754C4.96977 1.22815 4.8214 1.16669 4.66669 1.16669C4.51198 1.16669 4.3636 1.22815 4.25421 1.33754C4.14481 1.44694 4.08335 1.59531 4.08335 1.75002V2.33335H2.91669C2.45256 2.33335 2.00744 2.51773 1.67925 2.84592C1.35106 3.17411 1.16669 3.61923 1.16669 4.08335V11.0834C1.16669 11.5475 1.35106 11.9926 1.67925 12.3208C2.00744 12.649 2.45256 12.8334 2.91669 12.8334H11.0834C11.5475 12.8334 11.9926 12.649 12.3208 12.3208C12.649 11.9926 12.8334 11.5475 12.8334 11.0834V4.08335C12.8334 3.61923 12.649 3.17411 12.3208 2.84592C11.9926 2.51773 11.5475 2.33335 11.0834 2.33335ZM11.6667 11.0834C11.6667 11.2381 11.6052 11.3864 11.4958 11.4958C11.3864 11.6052 11.2381 11.6667 11.0834 11.6667H2.91669C2.76198 11.6667 2.6136 11.6052 2.50421 11.4958C2.39481 11.3864 2.33335 11.2381 2.33335 11.0834V7.00002H11.6667V11.0834ZM11.6667 5.83335H2.33335V4.08335C2.33335 3.92864 2.39481 3.78027 2.50421 3.67088C2.6136 3.56148 2.76198 3.50002 2.91669 3.50002H4.08335V4.08335C4.08335 4.23806 4.14481 4.38644 4.25421 4.49583C4.3636 4.60523 4.51198 4.66669 4.66669 4.66669C4.8214 4.66669 4.96977 4.60523 5.07917 4.49583C5.18856 4.38644 5.25002 4.23806 5.25002 4.08335V3.50002H8.75002V4.08335C8.75002 4.23806 8.81148 4.38644 8.92088 4.49583C9.03027 4.60523 9.17864 4.66669 9.33335 4.66669C9.48806 4.66669 9.63644 4.60523 9.74583 4.49583C9.85523 4.38644 9.91669 4.23806 9.91669 4.08335V3.50002H11.0834C11.2381 3.50002 11.3864 3.56148 11.4958 3.67088C11.6052 3.78027 11.6667 3.92864 11.6667 4.08335V5.83335Z" fill="white"/>
</g>
</svg>
