<svg width="15" height="14" viewBox="0 0 15 14" fill="none" xmlns="http://www.w3.org/2000/svg">
<path d="M13.8983 5.83836C13.9595 5.53266 13.7149 5.16582 13.4092 5.16582L9.92424 4.6767L8.3346 1.49743C8.27347 1.37515 8.21233 1.31401 8.09005 1.25287C7.78435 1.06945 7.41751 1.19173 7.23409 1.49743L5.70559 4.6767L2.22061 5.16582C2.03719 5.16582 1.91491 5.22696 1.85377 5.34924C1.60921 5.5938 1.60921 5.96064 1.85377 6.2052L4.36051 8.6508L3.74911 12.1358C3.74911 12.2581 3.74911 12.3803 3.81025 12.5026C3.99367 12.8083 4.36051 12.9306 4.66621 12.7472L7.78435 11.0964L10.9025 12.7472C10.9636 12.8083 11.0859 12.8083 11.2082 12.8083C11.2693 12.8083 11.2693 12.8083 11.3305 12.8083C11.6362 12.7472 11.8807 12.4415 11.8196 12.0746L11.2082 8.58966L13.7149 6.14406C13.8372 6.08292 13.8983 5.96064 13.8983 5.83836Z" fill="#C2A6F1"/>
<path d="M13.8983 5.83836C13.9595 5.53266 13.7149 5.16582 13.4092 5.16582L9.92424 4.6767L8.3346 1.49743C8.27347 1.37515 8.21233 1.31401 8.09005 1.25287C7.78435 1.06945 7.41751 1.19173 7.23409 1.49743L5.70559 4.6767L2.22061 5.16582C2.03719 5.16582 1.91491 5.22696 1.85377 5.34924C1.60921 5.5938 1.60921 5.96064 1.85377 6.2052L4.36051 8.6508L3.74911 12.1358C3.74911 12.2581 3.74911 12.3803 3.81025 12.5026C3.99367 12.8083 4.36051 12.9306 4.66621 12.7472L7.78435 11.0964L10.9025 12.7472C10.9636 12.8083 11.0859 12.8083 11.2082 12.8083C11.2693 12.8083 11.2693 12.8083 11.3305 12.8083C11.6362 12.7472 11.8807 12.4415 11.8196 12.0746L11.2082 8.58966L13.7149 6.14406C13.8372 6.08292 13.8983 5.96064 13.8983 5.83836Z" fill="url(#paint0_radial)"/>
<path d="M13.8983 5.83836C13.9595 5.53266 13.7149 5.16582 13.4092 5.16582L9.92424 4.6767L8.3346 1.49743C8.27347 1.37515 8.21233 1.31401 8.09005 1.25287C7.78435 1.06945 7.41751 1.19173 7.23409 1.49743L5.70559 4.6767L2.22061 5.16582C2.03719 5.16582 1.91491 5.22696 1.85377 5.34924C1.60921 5.5938 1.60921 5.96064 1.85377 6.2052L4.36051 8.6508L3.74911 12.1358C3.74911 12.2581 3.74911 12.3803 3.81025 12.5026C3.99367 12.8083 4.36051 12.9306 4.66621 12.7472L7.78435 11.0964L10.9025 12.7472C10.9636 12.8083 11.0859 12.8083 11.2082 12.8083C11.2693 12.8083 11.2693 12.8083 11.3305 12.8083C11.6362 12.7472 11.8807 12.4415 11.8196 12.0746L11.2082 8.58966L13.7149 6.14406C13.8372 6.08292 13.8983 5.96064 13.8983 5.83836Z" fill="url(#paint1_linear)"/>
<path d="M13.8983 5.83836C13.9595 5.53266 13.7149 5.16582 13.4092 5.16582L9.92424 4.6767L8.3346 1.49743C8.27347 1.37515 8.21233 1.31401 8.09005 1.25287C7.78435 1.06945 7.41751 1.19173 7.23409 1.49743L5.70559 4.6767L2.22061 5.16582C2.03719 5.16582 1.91491 5.22696 1.85377 5.34924C1.60921 5.5938 1.60921 5.96064 1.85377 6.2052L4.36051 8.6508L3.74911 12.1358C3.74911 12.2581 3.74911 12.3803 3.81025 12.5026C3.99367 12.8083 4.36051 12.9306 4.66621 12.7472L7.78435 11.0964L10.9025 12.7472C10.9636 12.8083 11.0859 12.8083 11.2082 12.8083C11.2693 12.8083 11.2693 12.8083 11.3305 12.8083C11.6362 12.7472 11.8807 12.4415 11.8196 12.0746L11.2082 8.58966L13.7149 6.14406C13.8372 6.08292 13.8983 5.96064 13.8983 5.83836Z" fill="url(#paint2_linear)"/>
<path d="M13.8983 5.83836C13.9595 5.53266 13.7149 5.16582 13.4092 5.16582L9.92424 4.6767L8.3346 1.49743C8.27347 1.37515 8.21233 1.31401 8.09005 1.25287C7.78435 1.06945 7.41751 1.19173 7.23409 1.49743L5.70559 4.6767L2.22061 5.16582C2.03719 5.16582 1.91491 5.22696 1.85377 5.34924C1.60921 5.5938 1.60921 5.96064 1.85377 6.2052L4.36051 8.6508L3.74911 12.1358C3.74911 12.2581 3.74911 12.3803 3.81025 12.5026C3.99367 12.8083 4.36051 12.9306 4.66621 12.7472L7.78435 11.0964L10.9025 12.7472C10.9636 12.8083 11.0859 12.8083 11.2082 12.8083C11.2693 12.8083 11.2693 12.8083 11.3305 12.8083C11.6362 12.7472 11.8807 12.4415 11.8196 12.0746L11.2082 8.58966L13.7149 6.14406C13.8372 6.08292 13.8983 5.96064 13.8983 5.83836Z" fill="url(#paint3_linear)"/>
<path d="M13.8983 5.83836C13.9595 5.53266 13.7149 5.16582 13.4092 5.16582L9.92424 4.6767L8.3346 1.49743C8.27347 1.37515 8.21233 1.31401 8.09005 1.25287C7.78435 1.06945 7.41751 1.19173 7.23409 1.49743L5.70559 4.6767L2.22061 5.16582C2.03719 5.16582 1.91491 5.22696 1.85377 5.34924C1.60921 5.5938 1.60921 5.96064 1.85377 6.2052L4.36051 8.6508L3.74911 12.1358C3.74911 12.2581 3.74911 12.3803 3.81025 12.5026C3.99367 12.8083 4.36051 12.9306 4.66621 12.7472L7.78435 11.0964L10.9025 12.7472C10.9636 12.8083 11.0859 12.8083 11.2082 12.8083C11.2693 12.8083 11.2693 12.8083 11.3305 12.8083C11.6362 12.7472 11.8807 12.4415 11.8196 12.0746L11.2082 8.58966L13.7149 6.14406C13.8372 6.08292 13.8983 5.96064 13.8983 5.83836Z" fill="url(#paint4_radial)"/>
<path d="M13.8983 5.83836C13.9595 5.53266 13.7149 5.16582 13.4092 5.16582L9.92424 4.6767L8.3346 1.49743C8.27347 1.37515 8.21233 1.31401 8.09005 1.25287C7.78435 1.06945 7.41751 1.19173 7.23409 1.49743L5.70559 4.6767L2.22061 5.16582C2.03719 5.16582 1.91491 5.22696 1.85377 5.34924C1.60921 5.5938 1.60921 5.96064 1.85377 6.2052L4.36051 8.6508L3.74911 12.1358C3.74911 12.2581 3.74911 12.3803 3.81025 12.5026C3.99367 12.8083 4.36051 12.9306 4.66621 12.7472L7.78435 11.0964L10.9025 12.7472C10.9636 12.8083 11.0859 12.8083 11.2082 12.8083C11.2693 12.8083 11.2693 12.8083 11.3305 12.8083C11.6362 12.7472 11.8807 12.4415 11.8196 12.0746L11.2082 8.58966L13.7149 6.14406C13.8372 6.08292 13.8983 5.96064 13.8983 5.83836Z" fill="url(#paint5_radial)"/>
<path d="M13.8983 5.83836C13.9595 5.53266 13.7149 5.16582 13.4092 5.16582L9.92424 4.6767L8.3346 1.49743C8.27347 1.37515 8.21233 1.31401 8.09005 1.25287C7.78435 1.06945 7.41751 1.19173 7.23409 1.49743L5.70559 4.6767L2.22061 5.16582C2.03719 5.16582 1.91491 5.22696 1.85377 5.34924C1.60921 5.5938 1.60921 5.96064 1.85377 6.2052L4.36051 8.6508L3.74911 12.1358C3.74911 12.2581 3.74911 12.3803 3.81025 12.5026C3.99367 12.8083 4.36051 12.9306 4.66621 12.7472L7.78435 11.0964L10.9025 12.7472C10.9636 12.8083 11.0859 12.8083 11.2082 12.8083C11.2693 12.8083 11.2693 12.8083 11.3305 12.8083C11.6362 12.7472 11.8807 12.4415 11.8196 12.0746L11.2082 8.58966L13.7149 6.14406C13.8372 6.08292 13.8983 5.96064 13.8983 5.83836Z" fill="url(#paint6_radial)"/>
<path d="M13.8983 5.83836C13.9595 5.53266 13.7149 5.16582 13.4092 5.16582L9.92424 4.6767L8.3346 1.49743C8.27347 1.37515 8.21233 1.31401 8.09005 1.25287C7.78435 1.06945 7.41751 1.19173 7.23409 1.49743L5.70559 4.6767L2.22061 5.16582C2.03719 5.16582 1.91491 5.22696 1.85377 5.34924C1.60921 5.5938 1.60921 5.96064 1.85377 6.2052L4.36051 8.6508L3.74911 12.1358C3.74911 12.2581 3.74911 12.3803 3.81025 12.5026C3.99367 12.8083 4.36051 12.9306 4.66621 12.7472L7.78435 11.0964L10.9025 12.7472C10.9636 12.8083 11.0859 12.8083 11.2082 12.8083C11.2693 12.8083 11.2693 12.8083 11.3305 12.8083C11.6362 12.7472 11.8807 12.4415 11.8196 12.0746L11.2082 8.58966L13.7149 6.14406C13.8372 6.08292 13.8983 5.96064 13.8983 5.83836Z" fill="url(#paint7_linear)"/>
<defs>
<radialGradient id="paint0_radial" cx="0" cy="0" r="1" gradientUnits="userSpaceOnUse" gradientTransform="translate(12.7758 5.85087) rotate(106.43) scale(11.8439 5.63477)">
<stop stop-color="#FFFDB1"/>
<stop offset="0.344597" stop-color="#FEE4BF"/>
<stop offset="0.695017" stop-color="#F0BDD0"/>
<stop offset="1" stop-color="#FF8126" stop-opacity="0"/>
</radialGradient>
<linearGradient id="paint1_linear" x1="8.62274" y1="0.378694" x2="11.4237" y2="2.71847" gradientUnits="userSpaceOnUse">
<stop stop-color="#C0A9F0" stop-opacity="0"/>
<stop offset="0.456382" stop-color="#C0A9F0"/>
<stop offset="1" stop-color="#C0A9F0" stop-opacity="0"/>
</linearGradient>
<linearGradient id="paint2_linear" x1="14.7797" y1="-1.5694" x2="11.5803" y2="2.97499" gradientUnits="userSpaceOnUse">
<stop stop-color="#C0A9F0" stop-opacity="0"/>
<stop offset="0.461891" stop-color="#C0A9F0"/>
<stop offset="1" stop-color="#C0A9F0" stop-opacity="0"/>
</linearGradient>
<linearGradient id="paint3_linear" x1="4.78324" y1="3.00534" x2="7.97799" y2="6.30897" gradientUnits="userSpaceOnUse">
<stop stop-color="#CDF9E8"/>
<stop offset="1" stop-color="#CDF9E8" stop-opacity="0"/>
</linearGradient>
<radialGradient id="paint4_radial" cx="0" cy="0" r="1" gradientUnits="userSpaceOnUse" gradientTransform="translate(7.24603 6.37619) rotate(-118.491) scale(3.62365 7.35499)">
<stop stop-color="#CBADEB"/>
<stop offset="1" stop-color="#C2A6F1" stop-opacity="0"/>
</radialGradient>
<radialGradient id="paint5_radial" cx="0" cy="0" r="1" gradientUnits="userSpaceOnUse" gradientTransform="translate(6.06052 12.8334) rotate(-126.396) scale(5.20749 7.04081)">
<stop stop-color="#DC8DDC"/>
<stop offset="1" stop-color="#DC8DDC" stop-opacity="0"/>
</radialGradient>
<radialGradient id="paint6_radial" cx="0" cy="0" r="1" gradientUnits="userSpaceOnUse" gradientTransform="translate(7.08541 11.3121) rotate(-137.846) scale(4.54977 8.59155)">
<stop stop-color="#DC8DDC"/>
<stop offset="1" stop-color="#DC8DDC" stop-opacity="0"/>
</radialGradient>
<linearGradient id="paint7_linear" x1="1.67035" y1="1.16669" x2="4.19826" y2="2.91185" gradientUnits="userSpaceOnUse">
<stop stop-color="#EBF3D0"/>
<stop offset="1" stop-color="#EBF3D0" stop-opacity="0"/>
</linearGradient>
</defs>
</svg>
