<svg width="14" height="14" viewBox="0 0 14 14" fill="none" xmlns="http://www.w3.org/2000/svg">
<g opacity="0.3">
<path d="M1.16669 12.8333C1.16669 11.5956 1.65835 10.4087 2.53352 9.53348C3.40869 8.65831 4.59568 8.16665 5.83335 8.16665C7.07103 8.16665 8.25802 8.65831 9.13319 9.53348C10.0084 10.4087 10.5 11.5956 10.5 12.8333H9.33335C9.33335 11.9051 8.9646 11.0148 8.30823 10.3584C7.65185 9.70206 6.76161 9.33331 5.83335 9.33331C4.9051 9.33331 4.01486 9.70206 3.35848 10.3584C2.7021 11.0148 2.33335 11.9051 2.33335 12.8333H1.16669ZM5.83335 7.58331C3.8996 7.58331 2.33335 6.01706 2.33335 4.08331C2.33335 2.14956 3.8996 0.583313 5.83335 0.583313C7.7671 0.583313 9.33335 2.14956 9.33335 4.08331C9.33335 6.01706 7.7671 7.58331 5.83335 7.58331ZM5.83335 6.41665C7.12252 6.41665 8.16669 5.37248 8.16669 4.08331C8.16669 2.79415 7.12252 1.74998 5.83335 1.74998C4.54419 1.74998 3.50002 2.79415 3.50002 4.08331C3.50002 5.37248 4.54419 6.41665 5.83335 6.41665ZM10.6657 8.57673C11.4855 8.94594 12.1812 9.54404 12.6692 10.2991C13.1572 11.0543 13.4168 11.9342 13.4167 12.8333H12.25C12.2502 12.159 12.0555 11.4989 11.6895 10.9326C11.3235 10.3662 10.8016 9.91761 10.1868 9.64073L10.6651 8.57673H10.6657ZM10.2644 1.9909C10.8521 2.23315 11.3546 2.64454 11.7081 3.17286C12.0616 3.70118 12.2503 4.32262 12.25 4.95831C12.2503 5.75884 11.9512 6.53053 11.4115 7.12179C10.8718 7.71306 10.1306 8.08117 9.33335 8.15381V6.97956C9.76557 6.91766 10.1666 6.71882 10.4774 6.41225C10.7883 6.10567 10.9928 5.7075 11.0607 5.27619C11.1286 4.84488 11.0565 4.40315 10.8549 4.01585C10.6533 3.62855 10.3329 3.31608 9.9406 3.12431L10.2644 1.9909Z" fill="white"/>
</g>
</svg>
